<svg xmlns="http://www.w3.org/2000/svg" xmlns:xlink="http://www.w3.org/1999/xlink" width="250" zoomAndPan="magnify" viewBox="0 0 187.5 187.499992" height="250" preserveAspectRatio="xMidYMid meet" version="1.0"><defs><g/><clipPath id="aae2d39e37"><path d="M 0 0 L 187 0 L 187 187 L 0 187 Z M 0 0 " clip-rule="nonzero"/></clipPath><clipPath id="f83005791b"><path d="M 70 126 L 187 126 L 187 187 L 70 187 Z M 70 126 " clip-rule="nonzero"/></clipPath><clipPath id="4e0a841752"><path d="M 133 66 L 187 66 L 187 187 L 133 187 Z M 133 66 " clip-rule="nonzero"/></clipPath><clipPath id="3ce9e1f94e"><path d="M 151 87 L 187 87 L 187 187 L 151 187 Z M 151 87 " clip-rule="nonzero"/></clipPath><clipPath id="378e03f4aa"><path d="M 89 156 L 187 156 L 187 187 L 89 187 Z M 89 156 " clip-rule="nonzero"/></clipPath><clipPath id="548c4cf07e"><path d="M 17 0 L 187 0 L 187 187 L 17 187 Z M 17 0 " clip-rule="nonzero"/></clipPath><clipPath id="318e13b7a7"><path d="M 0 0 L 129 0 L 129 187 L 0 187 Z M 0 0 " clip-rule="nonzero"/></clipPath><clipPath id="9fd3a99574"><path d="M 0 0 L 115 0 L 115 187 L 0 187 Z M 0 0 " clip-rule="nonzero"/></clipPath><clipPath id="a22dac5509"><path d="M 0 78 L 47 78 L 47 187 L 0 187 Z M 0 78 " clip-rule="nonzero"/></clipPath><clipPath id="11ac0fa93d"><path d="M 0 0 L 158 0 L 158 187 L 0 187 Z M 0 0 " clip-rule="nonzero"/></clipPath><clipPath id="958c8f50ce"><path d="M 7 0 L 187 0 L 187 187 L 7 187 Z M 7 0 " clip-rule="nonzero"/></clipPath><clipPath id="025014abdd"><path d="M 16 36 L 186 36 L 186 187 L 16 187 Z M 16 36 " clip-rule="nonzero"/></clipPath><clipPath id="5d5be4fa98"><path d="M 0 51 L 32 51 L 32 187 L 0 187 Z M 0 51 " clip-rule="nonzero"/></clipPath><clipPath id="6b973f8b55"><path d="M 0 14 L 138 14 L 138 187 L 0 187 Z M 0 14 " clip-rule="nonzero"/></clipPath><clipPath id="042d156039"><path d="M 144 147 L 187 147 L 187 187 L 144 187 Z M 144 147 " clip-rule="nonzero"/></clipPath><clipPath id="f36271738c"><path d="M 0.351562 1 L 0.828125 1 L 0.828125 2 L 0.351562 2 Z M 0.351562 1 " clip-rule="nonzero"/></clipPath><clipPath id="923bb83df5"><rect x="0" width="1" y="0" height="3"/></clipPath></defs><path stroke-linecap="butt" transform="matrix(0.0260891, 0, 0, -0.0260903, -255.091235, 421.591823)" fill="none" stroke-linejoin="miter" d="M 8354.999767 16299.982295 C 8417.136696 16236.20142 8479.123898 16172.270824 8508.320768 16120.916738 C 8537.36791 16069.562653 8533.624722 16030.335918 8509.069406 15993.504708 C 8484.364361 15956.523778 8438.847189 15921.638933 8436.601276 15859.504981 C 8434.505091 15797.37103 8475.829892 15707.838252 8521.945974 15654.986963 C 8568.062056 15602.135674 8618.96942 15586.115595 8719.286871 15567.55027 C 8819.75405 15548.685504 8969.781045 15527.275491 9099.744549 15512.453175 C 9229.558326 15497.780579 9339.45834 15489.8454 9375.842132 15514.54926 C 9412.375652 15539.253121 9375.392949 15596.745741 9265.043753 15670.857321 C 9154.544829 15745.118622 8970.829138 15836.148604 8849.400103 15882.861358 C 8728.120796 15929.723832 8669.128145 15932.418799 8633.043808 15912.35627 C 8596.809744 15892.144021 8583.483993 15849.473717 8555.335215 15846.77875 C 8527.186438 15843.934063 8484.364361 15881.513875 8475.530437 15848.874835 C 8466.696512 15816.086075 8491.850738 15713.228185 8520.598426 15655.136683 C 8549.346114 15596.895461 8581.387807 15583.420628 8575.248978 15516.944786 C 8569.259876 15450.618664 8524.940525 15330.842372 8550.394206 15260.02464 C 8575.847888 15189.057187 8671.074603 15166.599132 8777.830339 15160.760038 C 8884.586075 15155.070664 9002.870831 15165.70081 9111.423297 15216.605734 C 9219.826036 15267.510658 9318.496484 15358.54064 9367.756845 15410.793047 C 9417.166933 15463.045455 9417.166933 15476.370567 9348.741447 15485.80295 C 9280.465689 15495.085613 9143.914173 15500.475546 9015.298217 15509.907929 C 8886.831988 15519.190592 8766.151591 15532.515704 8712.698859 15481.7605 C 8659.0964 15430.855576 8672.422151 15315.570895 8696.528285 15225.888397 C 8720.634419 15136.205898 8755.520936 15071.826141 8752.82584 14963.428597 C 8750.130744 14855.031053 8710.003764 14702.31628 8778.279522 14580.443903 C 8846.55528 14458.421806 9023.383504 14367.541544 9216.232575 14334.004182 C 9409.081646 14300.466821 9617.951564 14324.571799 9826.971209 14348.676778 " stroke="#231f20" stroke-width="50.707001" stroke-opacity="1" stroke-miterlimit="22.926001"/><g clip-path="url(#aae2d39e37)"><path stroke-linecap="butt" transform="matrix(0.0351526, 0, 0, -0.0351542, -255.091235, 421.591823)" fill="none" stroke-linejoin="miter" d="M 8021.217023 16275.322936 C 8019.327935 16070.200063 8017.438847 15864.966072 8090.002039 15484.05534 C 8162.565231 15103.255726 8309.691825 14546.557136 8367.364561 14049.639752 C 8425.037297 13552.500132 8393.145051 13115.252837 8266.020562 12566.554706 C 8138.673828 12017.745457 7916.094849 11357.818725 7914.094639 10846.789421 C 7912.094428 10335.871234 8130.784109 9974.072709 8114.893547 9644.053785 C 8099.002986 9314.03486 7848.421061 9015.795536 7599.950469 8858.786532 C 7351.479876 8701.777529 7104.898372 8685.776611 7005.554584 8628.217755 C 6906.099673 8570.547781 6953.88248 8471.097634 6933.991497 8532.767837 C 6914.100515 8594.326923 6826.646868 8817.006359 6874.318551 9101.355998 C 6921.990235 9385.594519 7104.898372 9731.503244 7196.463563 10071.522742 C 7287.806509 10411.431122 7287.806509 10745.450276 7171.572055 11095.248113 C 7055.226478 11445.157067 6822.535324 11810.955821 6630.737362 12111.084143 C 6438.828278 12411.323582 6287.812386 12645.892589 6171.466809 12826.791851 C 6055.232355 13007.691113 5973.668216 13135.031749 5932.997269 13353.710955 C 5892.2152 13572.390162 5892.2152 13882.519057 5888.214779 14188.647723 C 5884.214358 14494.776388 5876.324638 14797.015942 5961.778076 15087.254808 C 6047.342635 15377.604791 6226.250352 15655.954086 6506.502066 15846.742804 C 6786.864903 16037.64264 7168.571739 16140.981899 7516.497242 16206.541214 C 7864.311622 16272.211647 8178.455792 16299.991018 8530.381716 16280.100988 C 8882.196517 16260.210959 9271.904194 16192.540412 9595.938294 16043.531867 C 9919.972394 15894.412205 10178.444038 15663.843427 10436.915683 15292.044329 C 10695.276205 14920.356348 10953.74785 14407.438047 11168.548232 13876.62983 C 11383.237491 13345.821614 11554.144366 12797.123483 11665.489416 12214.645637 C 11776.834467 11632.167791 11828.506572 11015.799113 11915.960219 10578.440699 C 12003.52499 10141.082286 12126.760181 9882.623021 12466.684841 9518.824381 C 12806.609502 9155.025742 13363.334756 8685.776611 13731.151241 8212.638368 C 14098.74548 7739.500126 14277.764319 7262.361654 14285.654038 6809.11344 C 14293.65488 6355.865227 14130.748848 5926.396155 13908.058747 5564.597631 C 13685.257522 5202.799106 13403.005597 4908.560011 13128.754514 4687.880689 C 12854.281186 4467.201368 12587.919822 4320.081821 12514.467648 4194.852417 C 12440.793228 4069.623014 12560.13912 3966.283755 12488.576034 3918.503237 C 12417.012947 3870.833837 12154.540882 3878.723178 11866.288325 3944.393611 C 11578.035769 4009.952926 11263.891599 4133.182214 10927.967359 4264.411962 C 10592.043119 4395.641709 10234.116564 4534.760798 10005.536954 4737.661322 C 9776.846221 4940.339611 9677.502433 5206.799335 9780.846642 5483.148515 C 9884.19085 5759.386578 10190.445301 6045.736332 10659.605785 6304.195598 C 11128.655145 6562.654863 11760.943906 6793.22364 12232.1046 6972.122788 C 12703.265293 7151.133053 13013.409043 7278.251454 13192.316759 7457.261719 C 13371.224475 7636.160866 13418.896158 7866.729644 13170.425566 8164.968968 C 12921.954974 8463.097175 12377.230983 8829.007047 12025.305059 9147.025283 C 11673.379136 9465.154637 11514.362402 9735.503473 11436.909806 10238.532319 C 11359.346088 10741.450047 11363.346509 11476.936667 11196.328933 12333.874696 C 11029.311357 13190.701608 10691.386907 14168.757693 10436.915683 14779.237145 C 10182.444459 15389.494362 10011.537585 15631.95271 9894.191903 15775.183145 C 9776.846221 15918.302463 9713.283976 15961.971634 9649.610609 16005.86304 " stroke="#231f20" stroke-width="37.636002" stroke-opacity="1" stroke-miterlimit="22.926001"/></g><g clip-path="url(#f83005791b)"><path stroke-linecap="butt" transform="matrix(0.0274612, 0, 0, -0.0274625, -255.091235, 421.591823)" fill="none" stroke-linejoin="miter" d="M 14189.825198 5379.851844 C 13902.772268 5657.218734 13615.861585 5934.585625 13490.115901 6294.593624 C 13364.512463 6654.601624 13400.074026 7097.392972 13669.772913 7456.120817 C 13939.614047 7814.990901 14443.450259 8089.797482 14920.82867 8363.608386 C 15398.20708 8637.419291 15849.127688 8910.09228 16300.048296 9182.907508 " stroke="#231f20" stroke-width="48.174" stroke-opacity="1" stroke-miterlimit="22.926001"/></g><g clip-path="url(#4e0a841752)"><path stroke-linecap="butt" transform="matrix(0.0294797, 0, 0, -0.0294811, -255.091235, 421.591823)" fill="none" stroke-linejoin="miter" d="M 15796.935309 5709.363771 C 15590.225258 5706.713769 15383.250194 5704.196267 15177.865208 5859.221379 C 14972.480221 6014.378991 14768.552805 6327.344216 14687.988888 6713.714495 C 14607.42497 7100.217274 14650.092045 7560.125106 14906.094493 7903.830354 C 15162.096941 8247.535601 15631.434762 8475.038266 15916.058602 8707.443433 C 16200.549935 8939.716101 16300.062274 9176.758772 16292.906926 9390.216426 C 16285.751578 9603.541579 16172.06105 9793.149216 16045.252384 9989.116858 C 15918.443718 10185.216999 15778.64942 10387.544645 15638.722617 10589.872291 " stroke="#231f20" stroke-width="44.877998" stroke-opacity="1" stroke-miterlimit="22.926001"/></g><g clip-path="url(#3ce9e1f94e)"><path stroke-linecap="butt" transform="matrix(0.0302054, 0, 0, -0.0302069, -255.091235, 421.591823)" fill="none" stroke-linejoin="miter" d="M 15774.834154 5927.03133 C 15893.811077 6081.823249 16012.658677 6236.615169 16064.905065 6430.719322 C 16117.02213 6624.694159 16102.40866 6857.851912 16046.541236 6891.215584 C 15990.673811 6924.579256 15893.552432 6758.01953 15673.833093 6702.41341 C 15453.984431 6646.936607 15111.53781 6702.41341 14958.936974 6889.793102 C 14806.206815 7077.172794 14843.19312 7396.455375 15102.355895 7655.605757 C 15361.389348 7914.756139 15842.728594 8113.645004 16071.241879 8353.656535 C 16300.01381 8593.668067 16276.218426 8874.672947 16209.746536 9093.476562 C 16143.145324 9312.280178 16033.99693 9469.011846 15924.848535 9625.614197 " stroke="#231f20" stroke-width="43.797001" stroke-opacity="1" stroke-miterlimit="22.926001"/></g><g clip-path="url(#378e03f4aa)"><path stroke-linecap="butt" transform="matrix(0.0266188, 0, 0, -0.02662, -255.091235, 421.591823)" fill="none" stroke-linejoin="miter" d="M 15042.744811 5398.379182 C 14911.258644 5483.048691 14779.772477 5567.718199 14672.059479 5749.089971 C 14564.34648 5930.608484 14480.40665 6208.82926 14674.554194 6434.66353 C 14868.848485 6660.351058 15341.376898 6833.65208 15646.172398 7061.980945 C 15950.821151 7290.30981 16087.883741 7573.666519 16168.888611 7796.125747 C 16250.04023 8018.584975 16274.987382 8179.999983 16299.934534 8341.561731 " stroke="#231f20" stroke-width="49.698002" stroke-opacity="1" stroke-miterlimit="22.926001"/></g><g clip-path="url(#548c4cf07e)"><path stroke-linecap="butt" transform="matrix(0.0288916, 0, 0, -0.028893, -255.091235, 421.591823)" fill="none" stroke-linejoin="miter" d="M 12446.336451 5569.507627 C 12070.741282 5666.57905 11695.01091 5763.650473 11405.540335 5983.886335 C 11116.204964 6204.257393 10912.994186 6547.657692 10922.728834 6898.493825 C 10932.328279 7249.059564 11154.873149 7607.061136 11735.43674 7880.429405 C 12315.729924 8153.662478 13254.312236 8342.397446 13979.949123 8562.49811 C 14705.450806 8782.598775 15218.277472 9034.065135 15303.050031 9319.465935 C 15387.552184 9604.866735 15044.135435 9924.201974 14688.550376 10255.569744 C 14333.10052 10586.937513 13965.347151 10930.337812 13709.00142 11310.106096 C 13452.655689 11689.739183 13307.44719 12105.875451 13311.503293 12727.916702 C 13315.559396 13349.957953 13468.744899 14177.904187 13490.78306 14807.651665 C 13512.956425 15437.263946 13403.847246 15868.542275 13294.873269 16299.9558 " stroke="#231f20" stroke-width="45.789001" stroke-opacity="1" stroke-miterlimit="22.926001"/></g><g clip-path="url(#318e13b7a7)"><path stroke-linecap="butt" transform="matrix(0.0349565, 0, 0, -0.0349582, -255.091235, 421.591823)" fill="none" stroke-linejoin="miter" d="M 8529.158502 7087.202117 C 8332.82093 7127.093499 8136.371611 7166.873141 7950.202917 7302.749671 C 7764.145969 7438.626201 7588.146153 7670.487878 7628.151191 7810.498809 C 7668.156228 7950.398 7924.054373 7998.334703 8283.876219 8048.394477 C 8643.698065 8098.342511 9107.443612 8150.301875 9381.332849 8314.225287 C 9655.222087 8478.148699 9739.143269 8754.03616 9689.192845 9059.870093 C 9639.242421 9365.704026 9455.308645 9701.596171 9351.384944 10091.34727 C 9247.461243 10481.21011 9223.435871 10925.043643 9301.43452 11350.775205 C 9379.321423 11776.506767 9559.232346 12184.248097 9653.21066 12558.243776 C 9747.188975 12932.015974 9755.23468 13271.819039 9719.14075 13695.539271 C 9683.158565 14119.371243 9603.260236 14627.232121 9521.238735 15018.994551 C 9439.328979 15410.75698 9355.407797 15686.644441 9288.918978 15880.849547 C 9222.430158 16075.054653 9173.485448 16187.465663 9124.540737 16299.988415 " stroke="#231f20" stroke-width="37.844002" stroke-opacity="1" stroke-miterlimit="22.926001"/></g><g clip-path="url(#9fd3a99574)"><path stroke-linecap="butt" transform="matrix(0.0350615, 0, 0, -0.0350632, -255.091235, 421.591823)" fill="none" stroke-linejoin="miter" d="M 7721.618243 7487.86968 C 7587.367703 7622.225193 7453.005752 7756.692112 7383.819374 7893.721366 C 7314.632997 8030.639215 7310.733603 8170.230805 7494.116498 8253.896635 C 7677.387982 8337.67387 8048.164577 8365.525344 8357.107935 8515.03206 C 8666.051294 8664.538775 8913.161416 8935.589325 8961.068248 9244.51788 C 9008.863668 9553.446435 8857.344387 9900.252996 8787.600953 10279.033049 C 8717.857519 10657.701696 8729.778521 11068.23243 8845.423384 11508.842757 C 8961.068248 11949.230272 9180.325561 12419.585974 9266.000802 12876.127344 C 9351.676042 13332.445902 9303.880622 13774.950129 9238.147993 14221.353562 C 9172.303952 14667.868401 9088.634113 15118.282447 9013.431529 15465.423225 C 8938.117533 15812.452598 8871.382202 16056.320109 8804.646872 16299.964808 " stroke="#231f20" stroke-width="37.733002" stroke-opacity="1" stroke-miterlimit="22.926001"/></g><g clip-path="url(#a22dac5509)"><path stroke-linecap="butt" transform="matrix(0.0233355, 0, 0, -0.0233366, -255.091235, 421.591823)" fill="none" stroke-linejoin="miter" d="M 11094.020756 11860.149393 C 10877.745931 12191.241607 10661.471105 12522.333821 10445.028884 12853.426034 " stroke="#231f20" stroke-width="56.693001" stroke-opacity="1" stroke-miterlimit="22.926001"/></g><g clip-path="url(#11ac0fa93d)"><path stroke-linecap="butt" transform="matrix(0.0348632, 0, 0, -0.0348649, -255.091235, 421.591823)" fill="none" stroke-linejoin="miter" d="M 9051.603454 5716.771779 C 8836.476859 5927.182385 8621.350264 6137.592992 8514.347192 6375.453331 C 8407.456164 6613.425709 8408.800706 6878.623741 8585.159696 7163.316686 C 8761.518686 7447.897591 9113.00417 7751.861368 9529.251723 7943.897459 C 9945.499276 8136.04559 10426.620943 8216.153994 10554.912585 8440.681606 C 10683.204226 8665.097178 10458.665842 9033.931957 10266.172357 9402.766736 C 10073.790918 9771.601515 9913.454377 10140.436294 9897.431928 10677.554742 C 9881.409478 11214.78523 10009.701119 11920.299387 10097.880615 12557.69339 C 10186.06011 13195.087393 10234.127458 13764.249203 10188.076921 14331.954496 C 10142.026385 14899.547749 10001.745917 15465.460407 9842.978008 15793.064567 C 9684.210099 16120.780766 9506.730658 16210.412547 9329.251217 16300.044329 " stroke="#231f20" stroke-width="37.945999" stroke-opacity="1" stroke-miterlimit="22.926001"/></g><g clip-path="url(#958c8f50ce)"><path stroke-linecap="butt" transform="matrix(0.0342891, 0, 0, -0.0342908, -255.091235, 421.591823)" fill="none" stroke-linejoin="miter" d="M 8900.225656 6124.03893 C 8925.174335 6470.569758 8950.123015 6817.214502 9270.354695 7014.857824 C 9590.586375 7212.615062 10205.987136 7261.59871 10776.616978 7307.962302 C 11347.24682 7354.43981 11872.877903 7398.297262 12129.655636 7581.701152 C 12386.547289 7765.105042 12374.243831 8088.05537 12150.27532 8377.286722 C 11926.192889 8666.404159 11490.103642 8921.802619 11204.845682 9235.753626 C 10919.4738 9549.590717 10784.933204 9921.866439 10758.389632 10372.857744 C 10731.732139 10823.962965 10813.299511 11353.897683 10874.47504 11900.008397 C 10935.650569 12446.233026 10976.434255 13008.747565 10943.738954 13553.149547 C 10911.043653 14097.665444 10805.211126 14624.068783 10640.253648 15079.047129 C 10475.068327 15533.683729 10250.985895 15916.895335 10026.903464 16299.993026 " stroke="#231f20" stroke-width="38.582001" stroke-opacity="1" stroke-miterlimit="22.926001"/></g><g clip-path="url(#025014abdd)"><path stroke-linecap="butt" transform="matrix(0.0245372, 0, 0, -0.0245384, -255.091235, 421.591823)" fill="none" stroke-linejoin="miter" d="M 12806.319929 9690.877162 C 13145.249785 10036.635917 13484.338838 10382.394672 14058.083883 10617.835371 C 14631.988125 10853.435259 15440.707556 10978.87628 15857.80301 11242.97102 C 16274.739268 11507.06576 16300.051549 11910.132595 16078.44969 12176.455982 C 15856.84783 12442.620181 15388.650222 12572.04093 15053.541088 12843.13999 C 14718.431954 13114.079862 14516.888883 13526.857234 14315.186615 13939.634605 " stroke="#231f20" stroke-width="53.912998" stroke-opacity="1" stroke-miterlimit="22.926001"/></g><g clip-path="url(#5d5be4fa98)"><path stroke-linecap="butt" transform="matrix(0.0233355, 0, 0, -0.0233366, -255.091235, 421.591823)" fill="none" stroke-linejoin="miter" d="M 10438.66786 14036.854725 C 9851.947068 13920.855279 9265.058881 13804.855833 8762.035777 13621.23189 C 8259.012673 13437.44056 7839.687256 13185.857347 7594.11824 12946.326023 C 7348.549224 12706.7947 7276.736608 12479.14788 7240.746602 12209.654217 C 7204.756596 11940.160555 7204.756596 11628.652664 7204.756596 11317.144772 " stroke="#231f20" stroke-width="56.693001" stroke-opacity="1" stroke-miterlimit="22.926001"/></g><path stroke-linecap="butt" transform="matrix(0.0346695, 0, 0, -0.0346712, -255.091235, 421.591823)" fill="none" stroke-linejoin="miter" d="M 7090.655148 16299.96095 C 6956.463918 16058.631114 6822.160017 15817.188612 6831.737057 15254.986987 C 6841.201426 14692.898026 6994.321393 13810.049942 7050.994936 13177.544947 C 7107.555807 12545.039951 7067.670252 12162.878045 7072.402437 11923.57619 C 7077.02195 11684.387002 7126.146531 11587.9452 7175.383783 11491.728729 " stroke="#231f20" stroke-width="38.16" stroke-opacity="1" stroke-miterlimit="22.926001"/><path stroke-linecap="butt" transform="matrix(0.0349005, 0, 0, -0.0349022, -255.091235, 421.591823)" fill="none" stroke-linejoin="miter" d="M 7303.049533 10818.231397 C 7351.401234 10987.790001 7399.752936 11157.460524 7401.991441 11416.443105 C 7404.11802 11675.537605 7360.131403 12023.944161 7370.092749 12460.431656 C 7380.16602 12896.919151 7444.187254 13421.487583 7432.211254 13841.858616 C 7420.235254 14262.34157 7332.038169 14578.850963 7302.042206 14923.228404 C 7272.046243 15267.605846 7300.027551 15639.963255 7335.395926 15874.099624 C 7370.7643 16108.347912 7413.295889 16204.151321 7455.939404 16299.954731 " stroke="#231f20" stroke-width="37.905998" stroke-opacity="1" stroke-miterlimit="22.926001"/><path stroke-linecap="butt" transform="matrix(0.0350242, 0, 0, -0.0350259, -255.091235, 421.591823)" fill="none" stroke-linejoin="miter" d="M 6888.021244 9037.568468 C 6910.438775 9142.624693 6932.744776 9247.569394 7075.726241 9389.094181 C 7218.596176 9530.730493 7482.141576 9708.835367 7615.86605 9917.721046 C 7749.590525 10126.4952 7753.494075 10365.938634 7717.581414 10631.255789 C 7681.668753 10896.684468 7605.82835 11187.986867 7639.845001 11644.903378 C 7673.750122 12101.81989 7817.400768 12724.350514 7829.334478 13434.651042 C 7841.268188 14144.95157 7721.596494 14943.245051 7683.676293 15418.005508 C 7645.756091 15892.877489 7689.698913 16044.55102 7713.454804 16137.674107 C 7737.210695 16230.797194 7740.779655 16265.369837 7744.348615 16300.054004 " stroke="#231f20" stroke-width="37.773998" stroke-opacity="1" stroke-miterlimit="22.926001"/><g clip-path="url(#6b973f8b55)"><path stroke-linecap="butt" transform="matrix(0.0233355, 0, 0, -0.0233366, -255.091235, 421.591823)" fill="none" stroke-linejoin="miter" d="M 12931.017609 10854.3187 C 12783.207493 10918.762837 12635.22998 10983.206973 12573.461087 11108.412725 C 12511.357402 11233.451088 12535.462336 11419.251067 12840.958897 11604.883658 C 13146.288062 11790.516248 13733.17625 11976.148839 14179.452321 12164.96179 C 14625.728393 12353.439966 14931.057558 12545.098503 14978.932636 12868.658285 C 15026.975109 13192.050679 14817.228703 13647.176932 14637.613465 14025.974546 C 14457.830831 14404.772159 14308.179365 14707.073745 14192.17437 14956.146149 C 14075.834584 15205.385939 13993.476059 15401.061772 13910.950139 15596.904993 " stroke="#231f20" stroke-width="56.693001" stroke-opacity="1" stroke-miterlimit="22.926001"/></g><g clip-path="url(#042d156039)"><path stroke-linecap="butt" transform="matrix(0.0297271, 0, 0, -0.0297285, -255.091235, 421.591823)" fill="none" stroke-linejoin="miter" d="M 16300.038285 6458.519776 C 16193.732564 6380.863815 16087.426844 6303.207853 15879.15173 6292.56465 C 15670.876616 6282.052845 15360.369301 6338.422401 15165.365977 6465.35245 C 14970.231249 6592.282499 14890.337703 6789.773041 14883.241895 6989.62874 C 14876.146087 7189.484438 14941.979419 7391.573895 15031.334042 7523.62845 C 15120.688665 7655.551606 15233.564579 7717.43986 15346.309088 7779.328114 " stroke="#231f20" stroke-width="44.505001" stroke-opacity="1" stroke-miterlimit="22.926001"/></g><g transform="matrix(1, 0, 0, 1, 93, 88)"><g clip-path="url(#923bb83df5)"><g clip-path="url(#f36271738c)"><g fill="#000000" fill-opacity="1"><g transform="translate(0.368847, 1.960101)"><g><path d="M 0.125 0 C 0.113281 0 0.101562 -0.00390625 0.09375 -0.015625 C 0.0820312 -0.0234375 0.078125 -0.0351562 0.078125 -0.046875 C 0.078125 -0.0664062 0.0820312 -0.0820312 0.09375 -0.09375 C 0.101562 -0.101562 0.113281 -0.109375 0.125 -0.109375 C 0.144531 -0.109375 0.160156 -0.101562 0.171875 -0.09375 C 0.179688 -0.0820312 0.1875 -0.0664062 0.1875 -0.046875 C 0.1875 -0.0351562 0.179688 -0.0234375 0.171875 -0.015625 C 0.160156 -0.00390625 0.144531 0 0.125 0 Z M 0.125 0 "/></g></g></g></g></g></g></svg>